<?xml version="1.0" encoding="UTF-8" standalone="no" ?>
<!DOCTYPE svg PUBLIC "-//W3C//DTD SVG 1.1//EN" "http://www.w3.org/Graphics/SVG/1.1/DTD/svg11.dtd">
<svg xmlns="http://www.w3.org/2000/svg" xmlns:xlink="http://www.w3.org/1999/xlink" version="1.1" width="472.25468750000005" height="173.24560000000002" xml:space="preserve">
<desc>Created with Fabric.js 1.6.0-rc.1</desc>
<defs></defs>
<g style="stroke: none; stroke-width: 1; stroke-dasharray: none; stroke-linecap: butt; stroke-linejoin: miter; stroke-miterlimit: 10; fill: none; fill-rule: nonzero; opacity: 1;" transform="translate(29.21000000000003 20) scale(1.74 1.74)" >
  <path d="M 54.331 31.374 c 0 0 0.038 0.067 0.105 0.196 c 0.448 0.859 1.737 2.708 1.684 7.414 c -0.062 5.415 -2.955 9.042 -2.955 9.042 s -1.214 10.236 -0.162 15.107 c 1.053 4.873 1.968 7.994 3.377 8.699 s 5.948 1.66 4.948 5.563 c -0.713 2.781 -4.064 1.322 -4.064 1.322 s -0.724 0.906 -1.479 0.934 c -1.822 0.063 -2.148 -1.152 -2.148 -1.152 s 0.995 0.563 2.109 0.021 c 1.114 -0.545 1.074 -1.676 1.074 -1.676 s 1.137 0.992 1.892 1.004 c 1.889 0.027 2.448 -2.068 -0.129 -3.678 c -0.707 -0.439 -3.97 -1.293 -3.97 -1.293 s -1.845 -3 -2.581 -5.811 c -0.857 -3.275 -1.553 -9.508 -1.152 -12.416 c 0.401 -2.91 0.816 -5.441 0.816 -5.441 l -2.214 1.463 c 0 0 4.65 -5.81 5.451 -9.632 C 55.936 36.257 54.331 31.374 54.331 31.374 z" style="stroke: none; stroke-width: 1; stroke-dasharray: none; stroke-linecap: butt; stroke-linejoin: miter; stroke-miterlimit: 10; fill: #2284a8; fill-rule: nonzero; opacity: 1;" transform=" matrix(1 0 0 1 0 0) " stroke-linecap="round" />
  <path d="M 46.863 49.566 c 0 0 -1.831 10.576 -1.161 15.334 c 0.67 4.76 1.665 7.996 1.665 7.996 s 3.902 0.02 5.101 1.867 c 1.197 1.844 1.034 3.998 -0.071 4.793 c -1.104 0.793 -3.082 -0.43 -3.082 -0.43 s -1.184 1.168 -2.696 1.096 c -1.514 -0.072 -2.018 -0.998 -2.399 -1.111 s -0.887 0.725 -2.157 0.391 c -1.271 -0.332 -1.718 -2.33 -1.718 -2.33 l -1.066 1.924 c 0 0 -1.353 -2.723 -4.163 -3.881 c -2.81 -1.16 -12.288 1.313 -12.54 1.32 c -0.251 0.01 2.053 -2.463 8.581 -2.943 c 6.528 -0.48 8.038 3.115 8.038 3.115 s 1.474 -1.057 1.86 -0.82 c 0.386 0.238 -0.063 2.076 1.22 2.475 c 1.228 0.383 2.232 -0.752 2.232 -0.752 s 1.223 1.539 2.35 1.375 c 1.127 -0.166 2.014 -1.605 2.014 -1.605 s 1.178 1.059 2.188 1.15 c 1.01 0.09 1.266 -2.154 0.354 -3.002 c -0.91 -0.852 -5.019 -1.715 -5.019 -1.715 s -3.032 -7.51 -2.701 -12.43 S 46.863 49.566 46.863 49.566 z" style="stroke: none; stroke-width: 1; stroke-dasharray: none; stroke-linecap: butt; stroke-linejoin: miter; stroke-miterlimit: 10; fill: #2284a8; fill-rule: nonzero; opacity: 1;" transform=" matrix(1 0 0 1 0 0) " stroke-linecap="round" />
  <path d="M 18.682 55.277 c 0 0 5.145 -5.279 11.367 -3.736 c 6.221 1.543 6.604 9.809 4.176 14.566 c -1.968 3.859 -7.38 7.674 -7.38 7.674 s 6.655 -5.561 6.798 -12.238 c 0.143 -6.676 -2.866 -8.434 -5.536 -8.74 C 23.43 52.267 18.682 55.277 18.682 55.277 z" style="stroke: none; stroke-width: 1; stroke-dasharray: none; stroke-linecap: butt; stroke-linejoin: miter; stroke-miterlimit: 10; fill: #2284a8; fill-rule: nonzero; opacity: 1;" transform=" matrix(1 0 0 1 0 0) " stroke-linecap="round" />
  <path d="M 20.817 80.248 c 0 0 -8.817 -0.193 -11.172 -9.928 c -2.355 -9.736 4.138 -22.178 8.28 -26.099 c 4.142 -3.921 9.71 -8.188 11.135 -10.628 c 1.425 -2.441 1.896 -4.874 1.896 -4.874 s 0.88 2.245 -2.584 7.526 c -3.465 5.281 -10.741 7.289 -15.389 18.534 c -1.866 4.514 -3.171 13.143 -0.844 18.473 C 14.465 78.582 20.817 80.248 20.817 80.248 z" style="stroke: none; stroke-width: 1; stroke-dasharray: none; stroke-linecap: butt; stroke-linejoin: miter; stroke-miterlimit: 10; fill: #2284a8; fill-rule: nonzero; opacity: 1;" transform=" matrix(1 0 0 1 0 0) " stroke-linecap="round" />
  <path d="M 37.283 22.276 c 0 0 2.647 3.683 0.052 5.033 c -2.084 1.083 -7.028 1.536 -9.443 -2.734 c -0.594 -1.05 -1.035 -2.385 -1.242 -4.065 c -1.055 -8.521 3.641 -14.603 6.219 -16.454 c 2.578 -1.854 5.201 -2.448 5.201 -2.448 s -7.662 4.045 -9.232 9.512 c -1.57 5.467 -1.524 10.374 -0.309 12.724 c 1.215 2.349 3.252 3.031 5.269 3.087 C 35.813 26.985 38.539 25.757 37.283 22.276 z" style="stroke: none; stroke-width: 1; stroke-dasharray: none; stroke-linecap: butt; stroke-linejoin: miter; stroke-miterlimit: 10; fill: #2284a8; fill-rule: nonzero; opacity: 1;" transform=" matrix(1 0 0 1 0 0) " stroke-linecap="round" />
  <path d="M 36.352 21.711 c 0 0 -1.957 -4.651 -1.332 -8.354 c 0.625 -3.704 3.017 -5.487 3.017 -5.487 s -2.313 4.046 -2.093 7.626 c 0.221 3.579 6.056 8.472 9.607 10.141 c 3.551 1.668 6.975 2.398 9.208 1.47 c 2.232 -0.928 3.365 -3.61 2.199 -7.251 s -0.963 -5.913 -0.837 -7.711 s 0.16 -3.499 -0.744 -5.071 c -0.905 -1.573 -2.661 -3.211 -4.103 -3.915 c 0 0 5.438 1.603 5.977 6.209 s -0.55 5.872 0.613 9.418 c 1.163 3.547 1.198 7.227 -1.197 8.916 c -2.395 1.688 -4.105 1.37 -8.007 0.469 c -3.902 -0.901 -9.916 -5.504 -10.805 -6.605 s -1.607 -2.775 -1.607 -2.775 L 36.352 21.711 z" style="stroke: none; stroke-width: 1; stroke-dasharray: none; stroke-linecap: butt; stroke-linejoin: miter; stroke-miterlimit: 10; fill: #2284a8; fill-rule: nonzero; opacity: 1;" transform=" matrix(1 0 0 1 0 0) " stroke-linecap="round" />
  <path d="M 37.661 2.565 c 0 0 5.162 -1.786 8.188 -1.609 c 3.027 0.177 6.559 2.162 6.559 2.162 s -1.919 -2.714 -5.96 -3.063 C 40.766 -0.438 37.661 2.565 37.661 2.565 z" style="stroke: none; stroke-width: 1; stroke-dasharray: none; stroke-linecap: butt; stroke-linejoin: miter; stroke-miterlimit: 10; fill: #2284a8; fill-rule: nonzero; opacity: 1;" transform=" matrix(1 0 0 1 0 0) " stroke-linecap="round" />
  <path d="M 53.998 3.629 c 0 0 4.161 2.023 4.899 6.906 c 0.737 4.883 -0.281 8.128 -0.281 8.128 s 1.692 -2.891 1.537 -7.322 C 59.951 5.59 53.998 3.629 53.998 3.629 z" style="stroke: none; stroke-width: 1; stroke-dasharray: none; stroke-linecap: butt; stroke-linejoin: miter; stroke-miterlimit: 10; fill: #2284a8; fill-rule: nonzero; opacity: 1;" transform=" matrix(1 0 0 1 0 0) " stroke-linecap="round" />
  <path d="M 54.406 26.03 c -1.355 -0.16 -3.712 -2.217 -3.063 -3.148 c 1.047 -1.503 5.337 -1.263 5.461 0.263 C 56.938 24.805 55.395 26.146 54.406 26.03 z" style="stroke: none; stroke-width: 1; stroke-dasharray: none; stroke-linecap: butt; stroke-linejoin: miter; stroke-miterlimit: 10; fill: #2284a8; fill-rule: nonzero; opacity: 1;" transform=" matrix(1 0 0 1 0 0) " stroke-linecap="round" />
  <path d="M 43.594 14.711 c 0 0 0.636 -1.31 2.075 -1.284 s 3 0.679 3 0.679 s -0.417 0.21 -0.461 1.12 c -0.022 0.459 -0.008 1.293 -0.008 1.293 s -0.317 -0.444 -1.23 -0.563 S 44.257 16.353 43.594 14.711 z" style="stroke: none; stroke-width: 1; stroke-dasharray: none; stroke-linecap: butt; stroke-linejoin: miter; stroke-miterlimit: 10; fill: #2284a8; fill-rule: nonzero; opacity: 1;" transform=" matrix(1 0 0 1 0 0) " stroke-linecap="round" />
  <path d="M 56.096 13.341 c 0 0 -2.098 0.291 -2.287 1.357 s -0.26 1.61 0.315 2.877 c 0.574 1.268 1.543 2.975 1.543 2.975 s -1.648 -3.805 -1.135 -4.276 c 0.514 -0.473 1.834 0.466 1.834 0.466 L 56.096 13.341 z" style="stroke: none; stroke-width: 1; stroke-dasharray: none; stroke-linecap: butt; stroke-linejoin: miter; stroke-miterlimit: 10; fill: #2284a8; fill-rule: nonzero; opacity: 1;" transform=" matrix(1 0 0 1 0 0) " stroke-linecap="round" />
  <path d="M 13.343 78.873 c 0 0 -13.554 -6.068 -13.34 -17.906 c 0.213 -11.84 6.38 -15.455 6.894 -18.745 s -3.405 -5.858 -1.422 -7.345 c 2.422 -1.814 6.311 3.072 6.364 8.304 c 0.052 5.065 -4.4 7.329 -5.741 12.159 s 1.93 8.365 1.93 8.365 s -4.662 -3.738 -2.958 -8.959 c 1.705 -5.219 5.091 -8.713 5.328 -11.357 c 0.339 -3.787 -1.928 -6.509 -2.942 -6.726 c -1.015 -0.215 -1.359 -0.171 -0.153 1.926 c 1.207 2.098 0.941 4.403 -0.237 6.71 c -1.177 2.308 -5.82 8.068 -5.556 15.615 C 1.898 71.974 13.343 78.873 13.343 78.873 z" style="stroke: none; stroke-width: 1; stroke-dasharray: none; stroke-linecap: butt; stroke-linejoin: miter; stroke-miterlimit: 10; fill: #2284a8; fill-rule: nonzero; opacity: 1;" transform=" matrix(1 0 0 1 0 0) " stroke-linecap="round" />
  <path d="M 34.048 77.109 c 0 0 2.219 1.338 1.683 2.205 c -0.536 0.869 -11.304 0.68 -11.304 0.68 s 10.138 1.061 12.202 0.705 C 38.692 80.343 38.964 77.314 34.048 77.109 z" style="stroke: none; stroke-width: 1; stroke-dasharray: none; stroke-linecap: butt; stroke-linejoin: miter; stroke-miterlimit: 10; fill: #2284a8; fill-rule: nonzero; opacity: 1;" transform=" matrix(1 0 0 1 0 0) " stroke-linecap="round" />
  <path d="M 52.273 32.626 c -0.388 -0.628 -1.116 -1.007 -1.896 -0.906 c -1.04 0.135 -1.774 1.073 -1.673 2.11 C 49.436 33.854 50.836 33.718 52.273 32.626 z M 52.459 33.011 c -0.455 0.337 -0.901 0.579 -1.329 0.763 c 0.072 0.199 0.196 0.486 0.319 0.504 c 0.19 0.029 0.218 0.449 -0.163 0.579 c -0.381 0.129 -0.258 -0.551 -0.258 -0.551 l -0.251 -0.391 c -0.798 0.286 -1.5 0.351 -1.985 0.342 c 0.288 0.861 1.151 1.426 2.085 1.305 c 1.061 -0.138 1.81 -1.109 1.671 -2.17 C 52.531 33.26 52.501 33.132 52.459 33.011 z" style="stroke: none; stroke-width: 1; stroke-dasharray: none; stroke-linecap: butt; stroke-linejoin: miter; stroke-miterlimit: 10; fill: #CEA72C; fill-rule: nonzero; opacity: 1;" transform=" matrix(1 0 0 1 0 0) " stroke-linecap="round" />
  <path d="M 38.999 27.195 c 0 0 3.257 2.835 8.563 3.75 c 5.438 0.938 7.688 -0.5 7.688 -0.5 l -0.313 -1.125 c 0 0 -2.813 1.063 -7.625 -0.75 c -3.478 -1.31 -8.125 -4.625 -8.125 -4.625 S 39.999 26.507 38.999 27.195 z" style="stroke: none; stroke-width: 1; stroke-dasharray: none; stroke-linecap: butt; stroke-linejoin: miter; stroke-miterlimit: 10; fill: #CEA72C; fill-rule: nonzero; opacity: 1;" transform=" matrix(1 0 0 1 0 0) " stroke-linecap="round" />
  <ellipse cx="45.212" cy="14.8" rx="0.692" ry="0.56" style="stroke: none; stroke-width: 1; stroke-dasharray: none; stroke-linecap: butt; stroke-linejoin: miter; stroke-miterlimit: 10; fill: #FFFFFF; fill-rule: nonzero; opacity: 1;" transform=" matrix(1 0 0 1 0 0) "/>
  <circle cx="55.251999999999995" cy="15.052" r="0.562" style="stroke: none; stroke-width: 1; stroke-dasharray: none; stroke-linecap: butt; stroke-linejoin: miter; stroke-miterlimit: 10; fill: #FFFFFF; fill-rule: nonzero; opacity: 1;" transform="  matrix(1 0 0 1 0 0) "/>
</g>
<g style="stroke: none; stroke-width: 1; stroke-dasharray: none; stroke-linecap: butt; stroke-linejoin: miter; stroke-miterlimit: 10; fill: none; fill-rule: nonzero; opacity: 1;" transform="translate(10 10) scale(0.1 0.1)" >
  <path d="M 256.004 0 L 68.284 87.437 V 248.2 c 0 122.145 78.469 225.905 187.72 263.8 c 109.263 -37.896 187.712 -141.655 187.712 -263.8 V 87.437 L 256.004 0 z" style="stroke: none; stroke-width: 1; stroke-dasharray: none; stroke-linecap: butt; stroke-linejoin: miter; stroke-miterlimit: 10; fill: #3F4A5A; fill-rule: nonzero; opacity: 1;" transform=" matrix(1 0 0 1 0 0) " stroke-linecap="round" />
  <path d="M 256.004 39.537 v 434.189 c 91.361 -37.038 151.89 -126.136 151.89 -225.526 V 110.277 L 256.004 39.537 z" style="stroke: none; stroke-width: 1; stroke-dasharray: none; stroke-linecap: butt; stroke-linejoin: miter; stroke-miterlimit: 10; fill: #2284a4; fill-rule: nonzero; opacity: 1;" transform=" matrix(1 0 0 1 0 0) " stroke-linecap="round" />
  <path d="M 104.124 110.277 V 248.2 c 0 99.387 60.536 188.488 151.88 225.526 V 39.537 L 104.124 110.277 z" style="stroke: none; stroke-width: 1; stroke-dasharray: none; stroke-linecap: butt; stroke-linejoin: miter; stroke-miterlimit: 10; fill: #37b0a8; fill-rule: nonzero; opacity: 1;" transform=" matrix(1 0 0 1 0 0) " stroke-linecap="round" />
  <path d="M 350.747 251.512 c 0 52.296 -42.399 94.728 -94.717 94.728 c -52.316 0 -94.715 -42.432 -94.715 -94.728 c 0 -52.306 42.401 -94.728 94.715 -94.728 C 308.348 156.785 350.747 199.206 350.747 251.512 z" style="stroke: none; stroke-width: 1; stroke-dasharray: none; stroke-linecap: butt; stroke-linejoin: miter; stroke-miterlimit: 10; fill: #FFFFFF; fill-rule: nonzero; opacity: 1;" transform=" matrix(1 0 0 1 0 0) " stroke-linecap="round" />
  <polygon points="238.66,300.18 196.94,258.45 210.84,244.56 238.66,272.36 301.22,209.81 315.11,223.71 " style="stroke: none; stroke-width: 1; stroke-dasharray: none; stroke-linecap: butt; stroke-linejoin: miter; stroke-miterlimit: 10; fill: #3F4A5A; fill-rule: nonzero; opacity: 1;" transform="  matrix(1 0 0 1 0 0) "/>
</g>
  <g transform="translate(339.33 66.89) scale(1.2 1.2)">
   <text font-family="ADAMCG PRO" font-size="40" font-weight="normal" style="stroke: none; stroke-width: 1; stroke-dasharray: none; stroke-linecap: butt; stroke-linejoin: miter; stroke-miterlimit: 10; fill: #097ba8; fill-rule: nonzero; opacity: 1;" ><tspan x="-102.94" y="8.98" style="stroke: none; stroke-width: 0; stroke-dasharray: none; stroke-linecap: butt; stroke-linejoin: miter; stroke-miterlimit: 4; fill: #097ba8; fill-rule: ; opacity: 1;"> </tspan><tspan x="-90.95" y="8.98" style="stroke: none; stroke-width: 0; stroke-dasharray: none; stroke-linecap: butt; stroke-linejoin: miter; stroke-miterlimit: 4; fill: #097ba8; fill-rule: ; opacity: 1;">c</tspan><tspan x="-63.88" y="8.98" style="stroke: none; stroke-width: 0; stroke-dasharray: none; stroke-linecap: butt; stroke-linejoin: miter; stroke-miterlimit: 4; fill: #097ba8; fill-rule: ; opacity: 1;">O</tspan><tspan x="-29.93" y="8.98" style="stroke: none; stroke-width: 0; stroke-dasharray: none; stroke-linecap: butt; stroke-linejoin: miter; stroke-miterlimit: 4; fill: #097ba8; fill-rule: ; opacity: 1;">N</tspan><tspan x="-0.42" y="8.98" style="stroke: none; stroke-width: 0; stroke-dasharray: none; stroke-linecap: butt; stroke-linejoin: miter; stroke-miterlimit: 4; fill: #097ba8; fill-rule: ; opacity: 1;">T</tspan><tspan x="22.94" y="8.98" style="stroke: none; stroke-width: 0; stroke-dasharray: none; stroke-linecap: butt; stroke-linejoin: miter; stroke-miterlimit: 4; fill: #097ba8; fill-rule: ; opacity: 1;">R</tspan><tspan x="48.56" y="8.98" style="stroke: none; stroke-width: 0; stroke-dasharray: none; stroke-linecap: butt; stroke-linejoin: miter; stroke-miterlimit: 4; fill: #097ba8; fill-rule: ; opacity: 1;">O</tspan><tspan x="82.51" y="8.98" style="stroke: none; stroke-width: 0; stroke-dasharray: none; stroke-linecap: butt; stroke-linejoin: miter; stroke-miterlimit: 4; fill: #097ba8; fill-rule: ; opacity: 1;">L</tspan></text>
 </g>
  <g transform="translate(306.37 105.22) scale(0.63 0.63)">
   <text font-family="ADAMCG PRO" font-size="40" font-weight="normal" style="stroke: none; stroke-width: 1; stroke-dasharray: none; stroke-linecap: butt; stroke-linejoin: miter; stroke-miterlimit: 10; fill: #000000; fill-rule: nonzero; opacity: 1;" ><tspan x="-219.23" y="8.98" style="stroke: none; stroke-width: 0; stroke-dasharray: none; stroke-linecap: butt; stroke-linejoin: miter; stroke-miterlimit: 4; fill: #000000; fill-rule: ; opacity: 1;">g</tspan><tspan x="-190.83" y="8.98" style="stroke: none; stroke-width: 0; stroke-dasharray: none; stroke-linecap: butt; stroke-linejoin: miter; stroke-miterlimit: 4; fill: #000000; fill-rule: ; opacity: 1;">e</tspan><tspan x="-167.57" y="8.98" style="stroke: none; stroke-width: 0; stroke-dasharray: none; stroke-linecap: butt; stroke-linejoin: miter; stroke-miterlimit: 4; fill: #000000; fill-rule: ; opacity: 1;">s</tspan><tspan x="-146.46" y="8.98" style="stroke: none; stroke-width: 0; stroke-dasharray: none; stroke-linecap: butt; stroke-linejoin: miter; stroke-miterlimit: 4; fill: #000000; fill-rule: ; opacity: 1;">t</tspan><tspan x="-123.1" y="8.98" style="stroke: none; stroke-width: 0; stroke-dasharray: none; stroke-linecap: butt; stroke-linejoin: miter; stroke-miterlimit: 4; fill: #000000; fill-rule: ; opacity: 1;">i</tspan><tspan x="-112.31" y="8.98" style="stroke: none; stroke-width: 0; stroke-dasharray: none; stroke-linecap: butt; stroke-linejoin: miter; stroke-miterlimit: 4; fill: #000000; fill-rule: ; opacity: 1;">รณ</tspan><tspan x="-78.37" y="8.98" style="stroke: none; stroke-width: 0; stroke-dasharray: none; stroke-linecap: butt; stroke-linejoin: miter; stroke-miterlimit: 4; fill: #000000; fill-rule: ; opacity: 1;">n</tspan><tspan x="-48.86" y="8.98" style="stroke: none; stroke-width: 0; stroke-dasharray: none; stroke-linecap: butt; stroke-linejoin: miter; stroke-miterlimit: 4; fill: #000000; fill-rule: ; opacity: 1;"> </tspan><tspan x="-36.87" y="8.98" style="stroke: none; stroke-width: 0; stroke-dasharray: none; stroke-linecap: butt; stroke-linejoin: miter; stroke-miterlimit: 4; fill: #000000; fill-rule: ; opacity: 1;">v</tspan><tspan x="-8.56" y="8.98" style="stroke: none; stroke-width: 0; stroke-dasharray: none; stroke-linecap: butt; stroke-linejoin: miter; stroke-miterlimit: 4; fill: #000000; fill-rule: ; opacity: 1;">e</tspan><tspan x="14.7" y="8.98" style="stroke: none; stroke-width: 0; stroke-dasharray: none; stroke-linecap: butt; stroke-linejoin: miter; stroke-miterlimit: 4; fill: #000000; fill-rule: ; opacity: 1;">t</tspan><tspan x="38.06" y="8.98" style="stroke: none; stroke-width: 0; stroke-dasharray: none; stroke-linecap: butt; stroke-linejoin: miter; stroke-miterlimit: 4; fill: #000000; fill-rule: ; opacity: 1;">e</tspan><tspan x="61.32" y="8.98" style="stroke: none; stroke-width: 0; stroke-dasharray: none; stroke-linecap: butt; stroke-linejoin: miter; stroke-miterlimit: 4; fill: #000000; fill-rule: ; opacity: 1;">r</tspan><tspan x="86.94" y="8.98" style="stroke: none; stroke-width: 0; stroke-dasharray: none; stroke-linecap: butt; stroke-linejoin: miter; stroke-miterlimit: 4; fill: #000000; fill-rule: ; opacity: 1;">i</tspan><tspan x="97.72" y="8.98" style="stroke: none; stroke-width: 0; stroke-dasharray: none; stroke-linecap: butt; stroke-linejoin: miter; stroke-miterlimit: 4; fill: #000000; fill-rule: ; opacity: 1;">n</tspan><tspan x="127.24" y="8.98" style="stroke: none; stroke-width: 0; stroke-dasharray: none; stroke-linecap: butt; stroke-linejoin: miter; stroke-miterlimit: 4; fill: #000000; fill-rule: ; opacity: 1;">a</tspan><tspan x="155.03" y="8.98" style="stroke: none; stroke-width: 0; stroke-dasharray: none; stroke-linecap: butt; stroke-linejoin: miter; stroke-miterlimit: 4; fill: #000000; fill-rule: ; opacity: 1;">r</tspan><tspan x="180.65" y="8.98" style="stroke: none; stroke-width: 0; stroke-dasharray: none; stroke-linecap: butt; stroke-linejoin: miter; stroke-miterlimit: 4; fill: #000000; fill-rule: ; opacity: 1;">i</tspan><tspan x="191.44" y="8.98" style="stroke: none; stroke-width: 0; stroke-dasharray: none; stroke-linecap: butt; stroke-linejoin: miter; stroke-miterlimit: 4; fill: #000000; fill-rule: ; opacity: 1;">a</tspan></text>
 </g>
  <g transform="translate(187.75 65.87) scale(1.24 1.24)">
   <text font-family="Grand Hotel" font-size="40" font-weight="normal" style="stroke: none; stroke-width: 1; stroke-dasharray: none; stroke-linecap: butt; stroke-linejoin: miter; stroke-miterlimit: 10; fill: #097ba8; fill-rule: nonzero; opacity: 1;" ><tspan x="-30.51" y="8.98" style="stroke: none; stroke-width: 0; stroke-dasharray: none; stroke-linecap: butt; stroke-linejoin: miter; stroke-miterlimit: 4; fill: #097ba8; fill-rule: ; opacity: 1;">P</tspan><tspan x="-7.83" y="8.98" style="stroke: none; stroke-width: 0; stroke-dasharray: none; stroke-linecap: butt; stroke-linejoin: miter; stroke-miterlimit: 4; fill: #097ba8; fill-rule: ; opacity: 1;">E</tspan><tspan x="10" y="8.98" style="stroke: none; stroke-width: 0; stroke-dasharray: none; stroke-linecap: butt; stroke-linejoin: miter; stroke-miterlimit: 4; fill: #097ba8; fill-rule: ; opacity: 1;">T</tspan></text>
 </g>
  <g transform="translate(307.57 142.67) scale(0.8 0.8)">
   <text font-family="ADAMCG PRO" font-size="40" font-weight="normal" style="stroke: none; stroke-width: 1; stroke-dasharray: none; stroke-linecap: butt; stroke-linejoin: miter; stroke-miterlimit: 10; fill: #3cb6e6; fill-rule: nonzero; opacity: 1;" ><tspan x="-73.72" y="8.98" style="stroke: none; stroke-width: 0; stroke-dasharray: none; stroke-linecap: butt; stroke-linejoin: miter; stroke-miterlimit: 4; fill: #3cb6e6; fill-rule: ; opacity: 1;">o</tspan><tspan x="-39.78" y="8.98" style="stroke: none; stroke-width: 0; stroke-dasharray: none; stroke-linecap: butt; stroke-linejoin: miter; stroke-miterlimit: 4; fill: #3cb6e6; fill-rule: ; opacity: 1;">n</tspan><tspan x="-10.26" y="8.98" style="stroke: none; stroke-width: 0; stroke-dasharray: none; stroke-linecap: butt; stroke-linejoin: miter; stroke-miterlimit: 4; fill: #3cb6e6; fill-rule: ; opacity: 1;">l</tspan><tspan x="10.17" y="8.98" style="stroke: none; stroke-width: 0; stroke-dasharray: none; stroke-linecap: butt; stroke-linejoin: miter; stroke-miterlimit: 4; fill: #3cb6e6; fill-rule: ; opacity: 1;">i</tspan><tspan x="20.95" y="8.98" style="stroke: none; stroke-width: 0; stroke-dasharray: none; stroke-linecap: butt; stroke-linejoin: miter; stroke-miterlimit: 4; fill: #3cb6e6; fill-rule: ; opacity: 1;">n</tspan><tspan x="50.46" y="8.98" style="stroke: none; stroke-width: 0; stroke-dasharray: none; stroke-linecap: butt; stroke-linejoin: miter; stroke-miterlimit: 4; fill: #3cb6e6; fill-rule: ; opacity: 1;">e</tspan></text>
 </g>
</svg>